<svg width="60" height="60" viewBox="0 0 60 60" fill="none" xmlns="http://www.w3.org/2000/svg">
<path fill-rule="evenodd" clip-rule="evenodd" d="M37.5 51.4287C39.4698 51.4287 41.4204 50.9852 43.2402 50.1238C45.0601 49.2622 46.7137 47.9996 48.1066 46.4077C49.4995 44.8158 50.6043 42.926 51.3582 40.846C52.112 38.7663 52.5 36.537 52.5 34.2858C52.5 27.466 50.1294 20.9254 45.9099 16.1031C41.6904 11.2807 35.9673 8.57153 30 8.57153C24.0327 8.57153 18.3096 11.2807 14.0901 16.1031C9.87053 20.9254 7.5 27.466 7.5 34.2858C7.5 36.537 7.88799 38.7663 8.6418 40.846C9.39562 42.926 10.5005 44.8158 11.8934 46.4077C13.2863 47.9996 14.9399 49.2622 16.7598 50.1238C18.5796 50.9852 20.5302 51.4287 22.5 51.4287H37.5ZM30 15.4287C25.6239 15.4287 21.427 17.4154 18.3327 20.9518C15.2383 24.4882 13.5 29.2846 13.5 34.2858C13.5 35.6365 13.7328 36.974 14.1851 38.222C14.6374 39.47 15.3003 40.6038 16.1361 41.5588C16.9717 42.514 17.9639 43.2716 19.0559 43.7886C20.1479 44.3055 21.3182 44.5715 22.5 44.5715H37.5C38.6818 44.5715 39.8522 44.3055 40.9442 43.7886C42.0362 43.2716 43.0282 42.514 43.8639 41.5588C44.6997 40.6038 45.3626 39.47 45.815 38.222C46.2672 36.974 46.5 35.6365 46.5 34.2858C46.5 29.2846 44.7617 24.4882 41.6673 20.9518C38.573 17.4154 34.3761 15.4287 30 15.4287Z" fill="#3064E8"/>
<path fill-rule="evenodd" clip-rule="evenodd" d="M19.5 60C16.9392 60 14.4036 59.3349 12.0377 58.0426C9.67188 56.7504 7.5222 54.8563 5.71142 52.4685C3.90071 50.0806 2.46434 47.2461 1.48435 44.1262C0.504386 41.0064 0 37.6625 0 34.2857C0 25.1926 3.16071 16.4719 8.78681 10.042C14.4129 3.61224 22.0436 0 30 0C37.9564 0 45.5871 3.61224 51.2132 10.042C56.8394 16.4719 60 25.1926 60 34.2857C60 37.6625 59.4955 41.0064 58.5156 44.1262C57.5356 47.2461 56.0993 50.0806 54.2886 52.4685C52.4778 54.8563 50.3281 56.7504 47.9623 58.0426C45.5964 59.3349 43.0608 60 40.5 60H19.5ZM13.0294 14.8908C17.5303 9.74693 23.6347 6.85714 30 6.85714C36.3653 6.85714 42.4696 9.74693 46.9705 14.8908C51.4714 20.0347 54 27.0111 54 34.2857C54 36.8878 53.6106 39.4469 52.8686 41.8094C52.1265 44.1717 51.0564 46.2607 49.7544 47.9775C48.4539 49.6925 46.9567 50.9918 45.375 51.8558C43.7971 52.7177 42.1436 53.1429 40.5 53.1429H19.5C17.8564 53.1429 16.2029 52.7177 14.625 51.8558C13.0432 50.9918 11.5461 49.6925 10.2456 47.9775C8.94363 46.2607 7.87355 44.1717 7.1315 41.8094C6.38942 39.4469 6 36.8878 6 34.2857C6 27.0111 8.52856 20.0347 13.0294 14.8908Z" fill="#3064E8"/>
<path d="M37.5 42.8571H29.9934C29.4894 42.8566 28.9891 42.798 28.5 42.684C27.552 42.4628 26.6456 42.0329 25.8333 41.4125C24.5999 40.4707 23.6385 39.1321 23.0709 37.5658C22.8868 37.0579 22.7467 36.5334 22.6515 36C22.4529 34.8882 22.4485 33.7369 22.6441 32.6134C22.9335 30.9507 23.6478 29.4235 24.6968 28.2248C25.7456 27.026 27.0819 26.2097 28.5367 25.879C28.5823 25.8685 28.6278 25.8588 28.6734 25.8493C29.1131 25.7592 29.557 25.7143 30 25.7143C30.9803 25.7143 31.9557 25.9339 32.8701 26.3667C34.2405 27.0154 35.4119 28.1141 36.236 29.5236C37.0602 30.9332 37.5 32.5904 37.5 34.2857H31.5C31.5 33.9466 31.4121 33.6152 31.2472 33.3332C31.0824 33.0514 30.8481 32.8316 30.574 32.7018C30.3 32.5721 29.9983 32.5381 29.7073 32.6043C29.4163 32.6705 29.1491 32.8337 28.9394 33.0735C28.7295 33.3132 28.5867 33.6186 28.5288 33.9512C28.4709 34.2838 28.5006 34.6285 28.6141 34.9417C28.7277 35.2549 28.92 35.5227 29.1666 35.7111C29.4134 35.8995 29.7033 36 30 36H37.5C37.697 36 37.8921 35.9556 38.074 35.8695C38.256 35.7833 38.4213 35.6571 38.5606 35.4978C38.7 35.3386 38.8104 35.1497 38.8859 34.9417C38.9612 34.7338 39 34.5108 39 34.2857C39 31.5577 38.0518 28.9416 36.3639 27.0126C34.6761 25.0836 32.387 24 30 24C29.7411 24 29.4834 24.0127 29.2275 24.0379C28.5986 24.0997 27.9802 24.2369 27.3825 24.4447C26.7943 24.6488 26.226 24.9216 25.6865 25.2583C25.0685 25.644 24.4882 26.1137 23.9595 26.6609C23.8494 26.7747 23.7415 26.892 23.6361 27.0126C22.8976 27.8564 22.3008 28.832 21.863 29.8908C21.6441 30.4201 21.4649 30.9702 21.3278 31.5353C21.1709 32.1812 21.0688 32.8464 21.0249 33.5218C21.0084 33.7752 21 34.0299 21 34.2857C21 35.6298 21.2306 36.9679 21.6851 38.2219C22.3664 40.1014 23.5198 41.7077 24.9999 42.8379C25.0083 42.8444 25.0167 42.8508 25.0251 42.8571H22.5C21.5151 42.8571 20.5398 42.6354 19.6299 42.2046C18.72 41.7738 17.8932 41.1425 17.1968 40.3465C16.5003 39.5506 15.9478 38.6057 15.5709 37.5658C15.1939 36.5259 15 35.4113 15 34.2857C15 29.7391 16.5804 25.3788 19.3933 22.1638C22.2064 18.949 26.0217 17.1428 30 17.1428C33.9783 17.1428 37.7936 18.949 40.6067 22.1638C43.4196 25.3788 45 29.7391 45 34.2857C45 35.4113 44.8061 36.5259 44.4291 37.5658C44.0522 38.6057 43.4997 39.5506 42.8032 40.3465C42.1068 41.1425 41.28 41.7738 40.3701 42.2046C39.4602 42.6354 38.4849 42.8571 37.5 42.8571Z" fill="#2EA9DF"/>
</svg>
