<svg width="110" height="111" viewBox="0 0 110 111" fill="none" xmlns="http://www.w3.org/2000/svg">
<g clip-path="url(#clip0_142_3441)">
<rect x="15" y="15" width="80" height="80.0415" rx="40" fill="url(#paint0_linear_142_3441)"/>
<path d="M79.5332 77.6992C81.4887 81.4345 82.4665 95.0415 82.4665 95.0415H27.5332C27.5332 95.0415 28.5111 81.4345 30.4665 77.6992C33.3999 72.0963 54.9999 64.8926 54.9999 64.8926C54.9999 64.8926 76.5999 72.0963 79.5332 77.6992Z" fill="url(#paint1_linear_142_3441)"/>
<path d="M53.9331 88.6383C53.9331 88.4273 53.9957 88.2209 54.1129 88.0454C54.2301 87.8699 54.3967 87.7331 54.5916 87.6524C54.7865 87.5716 55.001 87.5505 55.2079 87.5916C55.4148 87.6328 55.6048 87.7345 55.754 87.8837C55.9032 88.033 56.0048 88.2231 56.0459 88.4301C56.0871 88.6372 56.066 88.8517 55.9852 89.0468C55.9045 89.2418 55.7678 89.4084 55.5924 89.5257C55.417 89.643 55.2107 89.7056 54.9998 89.7056C54.7169 89.7056 54.4456 89.5931 54.2455 89.393C54.0455 89.1928 53.9331 88.9214 53.9331 88.6383ZM53.9331 83.3022C53.9331 83.0912 53.9957 82.8848 54.1129 82.7093C54.2301 82.5338 54.3967 82.397 54.5916 82.3163C54.7865 82.2355 55.001 82.2144 55.2079 82.2555C55.4148 82.2967 55.6048 82.3984 55.754 82.5476C55.9032 82.6969 56.0048 82.887 56.0459 83.094C56.0871 83.3011 56.066 83.5156 55.9852 83.7107C55.9045 83.9057 55.7678 84.0723 55.5924 84.1896C55.417 84.3069 55.2107 84.3695 54.9998 84.3695C54.7169 84.3695 54.4456 84.257 54.2455 84.0569C54.0455 83.8567 53.9331 83.5853 53.9331 83.3022ZM53.9331 77.9661C53.9331 77.7551 53.9957 77.5487 54.1129 77.3732C54.2301 77.1977 54.3967 77.0609 54.5916 76.9802C54.7865 76.8994 55.001 76.8783 55.2079 76.9194C55.4148 76.9606 55.6048 77.0623 55.754 77.2115C55.9032 77.3608 56.0048 77.5509 56.0459 77.7579C56.0871 77.965 56.066 78.1795 55.9852 78.3746C55.9045 78.5696 55.7678 78.7362 55.5924 78.8535C55.417 78.9708 55.2107 79.0334 54.9998 79.0334C54.7169 79.0334 54.4456 78.9209 54.2455 78.7208C54.0455 78.5206 53.9331 78.2492 53.9331 77.9661V77.9661Z" fill="black"/>
<path d="M77.7919 61.8006L34.4701 56.5625C32.3342 45.2183 34.8676 38.0708 42.0701 35.1201C45.3997 24.2049 58.3589 25.0928 62.0322 25.9826C74.5323 29.011 79.7855 40.9504 77.7919 61.8006Z" fill="url(#paint2_linear_142_3441)"/>
<path d="M48.5998 68.0944V52.0861C41.9275 51.9863 43.2289 40.4182 49.9331 43.9485C51.1331 44.4821 54.1998 43.0147 53.1331 39.4128C60.3331 44.7489 70.3662 35.3841 70.9998 41.1471C72.2464 52.4892 69.8342 61.8116 63.4376 61.8122C62.756 61.8381 62.0735 61.7976 61.3998 61.691V68.0944C59.3118 69.3394 57.2238 69.962 55.1358 69.962C53.0478 69.962 50.8691 69.3394 48.5998 68.0944Z" fill="black"/>
<path d="M61.4 61.691V63.8254C57.4 63.8254 54.2889 61.9133 52.0667 58.0891C54.7333 59.8678 57.8444 61.0684 61.4 61.691Z" fill="black"/>
<path d="M54.9909 69.6884C56.8152 69.6012 61.3997 68.6567 61.3997 66.6161V64.8926C61.8888 64.8926 63.2891 66.0484 64.0093 67.027C66.8563 70.8957 63.6984 74.3642 61.1229 74.3642C57.8733 74.3642 55.7197 71.6475 54.9997 70.3407C54.2798 71.6481 52.1262 74.3642 48.8766 74.3642C46.3011 74.3642 43.1432 70.8957 45.9902 67.027C46.7104 66.0484 48.1107 64.8926 48.5998 64.8926V66.6161C48.5998 68.6567 53.0638 69.6012 54.9909 69.6884Z" fill="black"/>
</g>
<rect x="7.5" y="7.5" width="95" height="95.0415" rx="47.5" stroke="#FAFAFA" stroke-width="15"/>
<defs>
<linearGradient id="paint0_linear_142_3441" x1="55" y1="95.0415" x2="55" y2="15" gradientUnits="userSpaceOnUse">
<stop stop-color="#151515"/>
<stop offset="1" stop-color="#242322"/>
</linearGradient>
<linearGradient id="paint1_linear_142_3441" x1="54.9999" y1="64.8926" x2="54.9999" y2="95.0415" gradientUnits="userSpaceOnUse">
<stop stop-color="#1D0024"/>
<stop offset="1" stop-color="#100014"/>
</linearGradient>
<linearGradient id="paint2_linear_142_3441" x1="55.9703" y1="61.8006" x2="55.9703" y2="25.4944" gradientUnits="userSpaceOnUse">
<stop/>
<stop offset="1" stop-color="white"/>
</linearGradient>
<clipPath id="clip0_142_3441">
<rect x="15" y="15" width="80" height="80.0415" rx="40" fill="white"/>
</clipPath>
</defs>
</svg>
