<svg width="1150" height="65" viewBox="0 0 1150 65" fill="none" xmlns="http://www.w3.org/2000/svg">
<path fill-rule="evenodd" clip-rule="evenodd" d="M0 54.7192C0 49.8022 3.48166 45.5735 8.30722 44.6296L47.9167 36.8818C95.8333 27.5091 191.667 8.76368 287.5 2.5152C383.333 -3.73327 479.167 2.5152 575 11.8879C670.833 21.2606 766.667 33.7576 862.5 33.7576C958.333 33.7576 1054.17 21.2606 1102.08 15.0122L1136.45 10.5309C1143.63 9.59421 1150 15.1865 1150 22.4301V53C1150 59.6274 1144.63 65 1138 65H1102.08C1054.17 65 958.333 65 862.5 65C766.667 65 670.833 65 575 65C479.167 65 383.333 65 287.5 65C191.667 65 95.8333 65 47.9167 65H10.2808C4.60287 65 0 60.3971 0 54.7192V54.7192Z" fill="#51A8DD"/>
</svg>
